<?xml version="1.0" encoding="utf-8"?>
<!-- Generator: Adobe Illustrator 16.0.0, SVG Export Plug-In . SVG Version: 6.00 Build 0)  -->
<!DOCTYPE svg PUBLIC "-//W3C//DTD SVG 1.1//EN" "http://www.w3.org/Graphics/SVG/1.1/DTD/svg11.dtd">
<svg version="1.1" xmlns="http://www.w3.org/2000/svg" xmlns:xlink="http://www.w3.org/1999/xlink" x="0px" y="0px"
	 width="512.666px" height="312.667px" viewBox="0 0 512.666 312.667" enable-background="new 0 0 512.666 312.667"
	 xml:space="preserve">
<g id="Layer_1">
	<ellipse fill="#534741" stroke="#534741" stroke-miterlimit="10" cx="255.666" cy="157.169" rx="250" ry="150"/>
	<path fill="#B22222" stroke="#534741" stroke-width="4" stroke-miterlimit="10" d="M255.666,7.169c-138.071,0-250,67.157-250,150
		s111.929,150,250,150s250-67.157,250-150S393.737,7.169,255.666,7.169z M255.666,297.169c-132.549,0-240-62.68-240-140
		s107.451-140,240-140s240,62.68,240,140S388.215,297.169,255.666,297.169z"/>
	<ellipse fill="none" stroke="#534741" stroke-width="4" stroke-miterlimit="10" cx="255.666" cy="157.169" rx="250" ry="150"/>
</g>
<g id="Layer_2">
	<g>
		<text transform="matrix(1 0 0 1 62.8091 210.4272)" font-family="'Dense-Regular'" font-size="162">HOT SPOT</text>
		<text transform="matrix(1 0 0 1 62.8091 210.4272)" fill="#C7B299" font-family="'Dense-Regular'" font-size="162">HOT SPOT</text>
	</g>
</g>
<g id="Layer_3">
	<g>
		<text transform="matrix(1 0 0 1 233.7124 60.4897)" font-family="'Dense-Regular'" font-size="19">EST. 2014</text>
		<text transform="matrix(1 0 0 1 233.7124 60.4897)" fill="#736357" font-family="'Dense-Regular'" font-size="19">EST. 2014</text>
	</g>
</g>
<g id="Layer_4">
	<g>
		<g>
			<path fill="#736357" stroke="#998675" stroke-miterlimit="10" d="M255.666,40.541c62.355,0,119.203,11.333,162.152,29.949
				c-39.776-26.769-97.678-43.631-162.152-43.631S133.29,43.721,93.514,70.49C136.463,51.875,193.312,40.541,255.666,40.541z"/>
			<path fill="#736357" stroke="#998675" stroke-miterlimit="10" d="M255.666,273.798c-62.354,0-119.203-11.334-162.152-29.949
				c39.776,26.77,97.678,43.631,162.152,43.631s122.376-16.861,162.152-43.631C374.869,262.464,318.021,273.798,255.666,273.798z"/>
		</g>
		<g>
			<path fill="#C7B299" d="M255.666,40.541c62.355,0,119.203,11.333,162.152,29.949c-39.776-26.769-97.678-43.631-162.152-43.631
				S133.29,43.721,93.514,70.49C136.463,51.875,193.312,40.541,255.666,40.541z"/>
			<path fill="#C7B299" d="M255.666,273.798c-62.354,0-119.203-11.334-162.152-29.949c39.776,26.77,97.678,43.631,162.152,43.631
				s122.376-16.861,162.152-43.631C374.869,262.464,318.021,273.798,255.666,273.798z"/>
		</g>
	</g>
</g>
</svg>
