<?xml version="1.0" encoding="utf-8"?>
<!-- Generator: Adobe Illustrator 17.1.0, SVG Export Plug-In . SVG Version: 6.00 Build 0)  -->
<!DOCTYPE svg PUBLIC "-//W3C//DTD SVG 1.1//EN" "http://www.w3.org/Graphics/SVG/1.1/DTD/svg11.dtd">
<svg version="1.1" id="Layer_1" xmlns="http://www.w3.org/2000/svg" xmlns:xlink="http://www.w3.org/1999/xlink" x="0px" y="0px"
	 viewBox="0 0 24.2 24.2" enable-background="new 0 0 24.2 24.2" xml:space="preserve">
<g>
	<g>
		<path fill="#F7F7F7" d="M17.1,15.5c3,0.3,6.2,3.3,6.8,8.1H0.6c0.6-4.8,3.9-7.8,6.8-8.1"/>
		<path fill="#FFFFFF" d="M24.3,24H0.2l0.1-0.4c0.7-5.1,4.1-8.1,7.1-8.5l0.1,0.7c-2.7,0.3-5.7,2.9-6.4,7.4h22.5
			c-0.7-4.5-3.8-7.1-6.4-7.4l0.1-0.7c3,0.3,6.5,3.4,7.1,8.5L24.3,24z"/>
	</g>
	<g>
		<ellipse fill="#F7F7F7" cx="12.1" cy="8.8" rx="8.1" ry="8.4"/>
		<path fill="#FFFFFF" d="M12.1,17.6c-4.6,0-8.4-3.9-8.4-8.8S7.5,0,12.1,0c4.6,0,8.4,3.9,8.4,8.8S16.8,17.6,12.1,17.6z M12.1,0.7
			c-4.3,0-7.7,3.6-7.7,8.1c0,4.4,3.5,8.1,7.7,8.1s7.7-3.6,7.7-8.1C19.9,4.4,16.4,0.7,12.1,0.7z"/>
	</g>
</g>
</svg>
