<?xml version="1.0" encoding="utf-8"?>
<!-- Generator: Adobe Illustrator 17.1.0, SVG Export Plug-In . SVG Version: 6.00 Build 0)  -->
<!DOCTYPE svg PUBLIC "-//W3C//DTD SVG 1.1//EN" "http://www.w3.org/Graphics/SVG/1.1/DTD/svg11.dtd">
<svg version="1.1" id="Layer_1" xmlns="http://www.w3.org/2000/svg" xmlns:xlink="http://www.w3.org/1999/xlink" x="0px" y="0px"
	 viewBox="0 0 24.2 24.2" enable-background="new 0 0 24.2 24.2" xml:space="preserve">
<g opacity="0.8">
	<path fill="#F7F7F7" d="M7,18.8c-2.4-2.2-4.8-4.1-5.7-7.5c-0.9-3.1,0-7.1,2.6-8.8c3-1.9,4.7-1.2,7.4,0.7l0.7,0.9
		c1.1-2.8,4.3-3.5,6.8-2.8c3,0.9,4.1,2.8,4.5,6c0.4,3.2-0.9,5.7-2.9,7.9c-1,1.1-2,2.1-2.9,3.2c-0.9,1.1-4.3,3.7-5.2,4.8L7,18.8z"/>
	<g>
		<path fill="#F7F7F7" d="M7.6,18.1C4.4,15.1,1,11.8,2.1,6.8c0.5-2.3,2.3-4.1,4.6-4.4c1.7-0.2,3.6,1,4.6,2.4
			c0.4,0.5,1.2,0.3,1.4-0.2c1.3-2.9,4.7-3,7.1-1.8c2.6,1.3,2.9,5.2,2.3,7.8c-0.4,1.6-1.4,2.9-2.4,4c-1.1,1.2-2.1,2.4-3.2,3.6
			c-1.5,1.6-3.4,2.7-4.9,4.4c0.4,0,0.9,0,1.3,0C11.1,21,9.4,19.6,7.6,18.1c-0.9-0.8-2.2,0.6-1.3,1.4c1.7,1.5,3.5,3,5.2,4.4
			c0.4,0.3,0.9,0.4,1.3,0c0.9-1.1,2-1.9,3-2.8c1.3-1.1,2.4-2.4,3.5-3.7c2.8-3.1,5.2-5.9,4.6-10.6c-0.4-3.4-2-5.6-5.1-6.5
			c-2.9-0.9-6.5,0.1-7.9,3.2c0.5-0.1,1-0.1,1.4-0.2C9.3-1,3-0.3,0.8,4.8c-1.1,2.4-1,5.2-0.1,7.7c1.1,3,3.5,5,5.6,7
			C7.2,20.3,8.5,18.9,7.6,18.1z"/>
	</g>
</g>
</svg>
