<?xml version="1.0" encoding="utf-8"?>
<!-- Generator: Adobe Illustrator 17.1.0, SVG Export Plug-In . SVG Version: 6.00 Build 0)  -->
<!DOCTYPE svg PUBLIC "-//W3C//DTD SVG 1.1//EN" "http://www.w3.org/Graphics/SVG/1.1/DTD/svg11.dtd">
<svg version="1.1" id="Layer_1" xmlns="http://www.w3.org/2000/svg" xmlns:xlink="http://www.w3.org/1999/xlink" x="0px" y="0px"
	 viewBox="0 0 24.2 24.2" enable-background="new 0 0 24.2 24.2" xml:space="preserve">
<g>
	<g>
		<path fill="#F7F7F7" d="M7.2,16.4l7.2,6.1v-21L7.2,7.5H6.9H1.1c-0.4,0-0.7,0.3-0.7,0.7v7.6c0,0.4,0.3,0.7,0.7,0.7h5.7H7.2z"/>
		<path fill="#F7F7F7" d="M14.6,23.1l-7.5-6.4h-6c-0.5,0-0.9-0.4-0.9-0.9V8.2c0-0.5,0.4-0.9,0.9-0.9h6l7.5-6.2V23.1z M1.1,7.7
			c-0.3,0-0.5,0.2-0.5,0.5v7.6c0,0.3,0.2,0.5,0.5,0.5h6.2l6.8,5.9v-20L7.3,7.7H1.1z"/>
	</g>
	<g>
		<g>
			<path fill="#F7F7F7" d="M19,16.1l-1.2-1.2c1.6-1.6,1.6-4.1,0-5.6L19,8.1C21.2,10.3,21.2,13.9,19,16.1z"/>
		</g>
		<g>
			<path fill="#F7F7F7" d="M21.3,18.4L20,17.2c1.4-1.4,2.2-3.2,2.2-5.1c0-1.9-0.8-3.7-2.2-5.1l1.2-1.2C23,7.5,24,9.7,24,12.1
				C24,14.4,23,16.7,21.3,18.4z"/>
		</g>
	</g>
</g>
</svg>
