<?xml version="1.0" encoding="utf-8"?>
<!-- Generator: Adobe Illustrator 17.1.0, SVG Export Plug-In . SVG Version: 6.00 Build 0)  -->
<!DOCTYPE svg PUBLIC "-//W3C//DTD SVG 1.1//EN" "http://www.w3.org/Graphics/SVG/1.1/DTD/svg11.dtd">
<svg version="1.1" xmlns="http://www.w3.org/2000/svg" xmlns:xlink="http://www.w3.org/1999/xlink" x="0px" y="0px"
	 viewBox="0 0 469.3 470.3" enable-background="new 0 0 469.3 470.3" xml:space="preserve">
<g id="Layer_1">
	<path display="none" fill="#C1272D" d="M202-29.1C74.2-29.1-29.3,74.7-29.3,202.7S74.2,434.5,202,434.5s231.3-103.8,231.3-231.8
		S329.8-29.1,202-29.1z M202,431.7c-126.2,0-228.5-102.5-228.5-229c0-126.5,102.3-229,228.5-229c126.2,0,228.5,102.5,228.5,229
		C430.5,329.2,328.2,431.7,202,431.7z"/>
	<ellipse fill="#B22222" cx="234.7" cy="235.1" rx="234.7" ry="235.1"/>
</g>
<g id="Layer_2">
	<g>
		<g>
			<path fill="#F2F2F2" d="M86.9,280.6c0,0-13.7,1.8-28.7-12.5c-15-14.3-19.8-22.5-21.6-36.7c0,0-1.7-30.5,16.5-34.3
				c0,0,17.7-3.9,24.4,5.5l-0.7,15l-12.3-4.2c-17.3-6.6-9.5,27.1-9.5,27.1c2.7,12,29.3,21.3,29.3,21.3L86.9,280.6z"/>
			<path fill="#E6E6E6" d="M77.2,175.9c1.2-22.7,50.8-38.6,110.8-35.4c60,3.1,107.7,24.1,106.5,46.8c-1.2,22.7-50.8,38.6-110.8,35.4
				C123.7,219.6,76,198.6,77.2,175.9z"/>
			
				<ellipse transform="matrix(-0.9986 -5.230391e-002 5.230391e-002 -0.9986 359.7806 382.3606)" fill="#736357" cx="184.9" cy="186.5" rx="104.7" ry="41.2"/>
			<path fill="#F2F2F2" d="M294.3,188.7c0,0-19.4,148.4-86.7,154.6c0,0-35.1,4.3-64.6-3.4c0,0-86.7-16.7-65.9-162.5
				c0,0,2.4,35.4,85.3,48.2c0,0,32.1,4.9,58.3,1.4C220.8,226.9,268.4,223.4,294.3,188.7z"/>
			<path opacity="0.2" fill="#C7B299" d="M89.5,181c1.1-20.7,44.7-35.3,97.4-32.5c52.7,2.8,94.5,21.8,93.4,42.5
				c-1.1,20.7-44.7,35.3-97.4,32.5C130.3,220.7,88.4,201.7,89.5,181z"/>
			<path opacity="0.1" fill="#C7B299" d="M100.1,181.6c1-18.5,39.7-31.6,86.5-29.1c46.8,2.5,84,19.5,83,38
				c-1,18.5-39.7,31.6-86.5,29.1C136.3,217.2,99.2,200.2,100.1,181.6z"/>
		</g>
		<g opacity="0.8">
			<path fill="#8E2525" d="M190.6,304.2c8.4-6.4,16.8-12,20.7-22.6c3.5-9.5,1.2-22.2-7.4-27.9c-9.8-6.5-15.6-4.4-25.2,1l-2.4,2.6
				c-3.3-9-14.1-11.7-22.7-9.9c-10.4,2.1-14.4,7.9-16.1,18.2c-1.7,10.1,2,18,8.6,25.2c3.2,3.5,6.4,6.9,9.3,10.7
				c2.7,3.6,14.1,12.3,16.8,15.9L190.6,304.2z"/>
			<g>
				<path fill="#B22222" d="M192.2,306.8c7.5-5.7,15.1-11.1,19.9-19.4c4.5-7.7,5-17.4,1.9-25.7c-2.9-7.7-10.5-13.8-18.7-14.9
					c-7.6-1-15.9,2.7-20.9,8.3c1.7,0.4,3.3,0.9,5,1.3c-4.1-9.8-14.3-13.7-24.4-12.3c-11.1,1.5-17.7,8.6-20,19.2
					c-3,13.8,3.9,23.7,12.7,33.4c3.8,4.2,7.1,8.5,11.3,12.2c3.8,3.4,8,6.5,11.2,10.4c0.8,1,2.6,1.2,3.6,0.5
					C179.9,315.4,186,311.1,192.2,306.8c3.1-2.2,0.1-7.4-3-5.2c-6.2,4.3-12.3,8.7-18.5,13c1.2,0.2,2.4,0.3,3.6,0.5
					c-4.3-5.4-10.3-9.3-15.2-14.2c-3.5-3.4-6.3-7.5-9.6-11.1c-3.7-4-6.8-8.2-8.5-13.5c-2.6-8.3,0-20.1,8.1-24.4
					c7.7-4.1,20.7-2.8,24.4,6.1c0.8,1.9,3.3,3.2,5,1.3c10.1-11.2,27-6.7,30.8,7.6c4.1,15.7-9.2,26.4-20.2,34.6
					C186.1,303.9,189.1,309.1,192.2,306.8z"/>
			</g>
		</g>
	</g>
	<g>
		<g>
			<path fill="#F2F2F2" d="M388.5,319.3c0,0,13.1,2.4,28.2-10.6c15.1-13,20.1-20.6,22.6-34.1c0,0,3.2-29.2-14.1-33.8
				c0,0-16.8-4.7-23.7,4.1l-0.1,14.5l12.1-3.4c16.9-5.5,7.7,26.5,7.7,26.5c-3.2,11.4-29.2,19-29.2,19L388.5,319.3z"/>
			<path fill="#E6E6E6" d="M403.1,219.2c0-21.9-46.9-39.6-104.6-39.6c-57.8,0-104.6,17.7-104.6,39.6c0,21.9,46.8,39.6,104.6,39.6
				C356.3,258.8,403.1,241.1,403.1,219.2z"/>
			<ellipse fill="#736357" cx="299.2" cy="223.9" rx="100.7" ry="39.6"/>
			<path fill="#F2F2F2" d="M194,220.6c0,0,11.2,143.5,75.5,152.8c0,0,33.5,5.9,62.2,0c0,0,84.1-11.6,71.4-152.8
				c0,0-4.1,33.9-84.3,42c0,0-31,3.1-56.1-1.6C262.7,261,217.2,255.2,194,220.6z"/>
			<ellipse opacity="0.2" fill="#C7B299" cx="299.2" cy="223.4" rx="91.9" ry="36.1"/>
			<path opacity="0.1" fill="#C7B299" d="M380.8,223.5c0-17.8-36.6-32.3-81.6-32.3c-45.1,0-81.6,14.5-81.6,32.3
				c0,17.8,36.5,32.3,81.6,32.3C344.3,255.8,380.8,241.4,380.8,223.5z"/>
		</g>
		<g opacity="0.8">
			<path fill="#8E2525" d="M287.7,336.7c-7.7-6.5-15.6-12.4-18.7-22.8c-2.8-9.3,0-21.4,8.5-26.5c9.7-5.7,15.2-3.5,24.1,2.2l2.1,2.6
				c3.6-8.5,14.1-10.5,22.3-8.4c9.9,2.6,13.4,8.3,14.6,18.2c1.2,9.7-2.8,17.2-9.5,23.7c-3.3,3.2-6.5,6.3-9.4,9.8
				c-2.8,3.3-14.2,11.1-16.9,14.4L287.7,336.7z"/>
			<g>
				<path fill="#B22222" d="M289.9,334.6c-10.6-8.9-21.8-18.8-18.2-34.1c1.7-7.1,7.7-12.4,14.9-13.4c5.6-0.7,11.8,3.1,15.1,7.2
					c1.2,1.4,3.9,1,4.7-0.6c4.2-8.7,15.3-9.1,23.2-5.5c8.3,3.9,9.5,15.6,7.4,23.4c-1.3,4.7-4.5,8.6-7.9,12
					c-3.5,3.6-6.9,7.3-10.4,10.9c-4.9,4.9-11.2,8.2-15.9,13.4c1.4,0,2.8,0,4.2,0C301.2,343.5,295.5,339,289.9,334.6
					c-3-2.4-7.3,1.9-4.2,4.2c5.7,4.5,11.4,8.9,17.1,13.4c1.2,1,3.1,1.3,4.2,0c2.9-3.2,6.6-5.7,9.9-8.4c4.3-3.4,7.8-7.1,11.6-11
					c9.1-9.5,16.9-17.9,15-32c-1.3-10.2-6.7-16.9-16.6-19.8c-9.6-2.7-21.2,0.4-25.7,9.8c1.6-0.2,3.1-0.4,4.7-0.6
					c-10.6-13.2-31-10.9-38.4,4.4c-3.5,7.3-3.2,15.8-0.3,23.2c3.5,9,11.3,15.1,18.4,21.1C288.6,341.3,292.8,337.1,289.9,334.6z"/>
			</g>
		</g>
	</g>
	<g id="Layer_3">
	</g>
</g>
<g id="Layer_4">
	<g>
		<g>
			<path fill="#FFFFFF" d="M255.5,80.7c-0.5-11.9-14.8-15-24.3-15.9c-10.3-1-24.2,1-25.6,13.6c-1.7,14.8,8.8,26.7,17.9,36.9
				c12.4,13.9,18.4,38.7-0.2,50.1c-1.6,1-0.1,3.6,1.5,2.6c11.9-7.4,15-19.5,12.4-32.7c-1.4-7.1-4.3-13.2-8.8-18.9
				c-5-6.3-11-11.6-15.1-18.7c-3.1-5.5-5.2-12-4.8-18.3c0.4-7.6,7.1-11,13.9-11.6c9.1-0.9,29.6,0.5,30.2,12.9
				C252.6,82.6,255.6,82.6,255.5,80.7L255.5,80.7z"/>
		</g>
	</g>
	<g>
		<g>
			<path fill="#FFFFFF" d="M265.6,81.1c6.4-13.4,27.3-14.2,34.5-1c5,9.3,1.5,20.7-3.9,28.8c-4,6.1-9,11-12.5,17.4
				c-6.9,12.8-10.6,27.6-11.6,42.1c-0.9,13.5,1.3,28.3,10.4,38.8c1.3,1.5,3.4-0.7,2.1-2.1c-11.2-12.8-10.9-32.1-8.2-47.9
				c1.5-8.6,4.1-17.1,7.7-25.1c3.3-7.3,8-12.8,12.7-19.1c9.1-12.2,13.5-32.7-1.7-42.2c-10.8-6.8-26.7-2.7-32.2,8.8
				C262.2,81.3,264.8,82.8,265.6,81.1L265.6,81.1z"/>
		</g>
	</g>
	<g>
		<g>
			<path fill="#FFFFFF" d="M220.4,154.1c10-3.4,9.7-17.7,4.9-25.2c-1-1.6-3.6-0.1-2.6,1.5c3.6,5.7,4.9,18.1-3.1,20.8
				C217.8,151.9,218.6,154.8,220.4,154.1L220.4,154.1z"/>
		</g>
	</g>
	<g>
		<g>
			<path fill="#FFFFFF" d="M301.5,129c0.7-8.8,5.8-16.1,9.1-24.1c3.3-8,4-15.7,0.8-23.8c-0.7-1.8-3.6-1-2.9,0.8
				c7,17.7-8.5,30.2-10,47.1C298.4,130.9,301.4,130.9,301.5,129L301.5,129z"/>
		</g>
	</g>
</g>
</svg>
